<svg width="16" height="16" viewBox="0 0 16 16" fill="none" xmlns="http://www.w3.org/2000/svg">
<path d="M12.4389 10.5C12.7386 10.5 12.9912 10.6 13.1968 10.8C13.4024 11 13.5034 11.2333 13.4999 11.5L9.30295 13L5.64433 12V7.5H6.66351L10.4633 8.845C10.735 8.94833 10.8709 9.135 10.8709 9.405C10.8709 9.56167 10.8117 9.69833 10.6932 9.815C10.5748 9.93167 10.4249 9.99333 10.2437 10H8.78029L7.86563 9.665L7.69315 10.135L8.78029 10.5H12.4389ZM10.3483 3.615C10.7176 3.205 11.188 3 11.7595 3C12.2333 3 12.634 3.16667 12.9616 3.5C13.2891 3.83333 13.4633 4.21667 13.4842 4.65C13.4842 4.99333 13.31 5.40333 12.9616 5.88C12.6131 6.35667 12.2699 6.755 11.9319 7.075C11.5939 7.395 11.0661 7.87 10.3483 8.5C9.62351 7.87 9.0904 7.395 8.74893 7.075C8.40746 6.755 8.06424 6.35667 7.71929 5.88C7.37433 5.40333 7.20534 4.99333 7.21231 4.65C7.21231 4.19667 7.3813 3.81333 7.71929 3.5C8.05727 3.18667 8.46495 3.02 8.94231 3C9.49982 3 9.96847 3.205 10.3483 3.615ZM2.5 8.5C2.5 7.94772 2.94772 7.5 3.5 7.5H4.599V13H4.5C3.39543 13 2.5 12.1046 2.5 11V8.5Z" fill="white"/>
<path fill-rule="evenodd" clip-rule="evenodd" d="M8 15C11.866 15 15 11.866 15 8C15 4.13401 11.866 1 8 1C4.13401 1 1 4.13401 1 8C1 11.866 4.13401 15 8 15ZM8 16C12.4183 16 16 12.4183 16 8C16 3.58172 12.4183 0 8 0C3.58172 0 0 3.58172 0 8C0 12.4183 3.58172 16 8 16Z" fill="white"/>
</svg>
