<svg width="100" height="100" viewBox="0 0 100 100" fill="none" xmlns="http://www.w3.org/2000/svg">
<path d="M96.1538 39.9816H92.1298C91.1634 29.0527 86.3069 18.8936 78.5129 11.497C70.7189 4.10042 60.5498 0 50 0C39.4502 0 29.2811 4.10042 21.4871 11.497C13.6931 18.8936 8.8366 29.0527 7.87019 39.9816H3.84615C2.82609 39.9816 1.84781 40.4032 1.12651 41.1536C0.405218 41.9039 0 42.9217 0 43.9829C0.0168991 53.4984 2.5341 62.828 7.27938 70.9628C12.0247 79.0976 18.8174 85.728 26.9231 90.137V91.9976C26.9231 94.1199 27.7335 96.1554 29.1761 97.6561C30.6187 99.1569 32.5753 100 34.6154 100H65.3846C67.4247 100 69.3813 99.1569 70.8239 97.6561C72.2665 96.1554 73.0769 94.1199 73.0769 91.9976V90.137C81.1826 85.728 87.9753 79.0976 92.7206 70.9628C97.4659 62.828 99.9831 53.4984 100 43.9829C100 42.9217 99.5948 41.9039 98.8735 41.1536C98.1522 40.4032 97.1739 39.9816 96.1538 39.9816ZM84.3942 39.9816H59.6731C64.3361 32.7038 71.3908 27.4454 79.5144 25.1921C82.1705 29.6867 83.837 34.7375 84.3942 39.9816ZM71.8654 16.0893C72.7468 16.8396 73.5913 17.6315 74.399 18.465C64.1604 22.212 55.6996 29.9126 50.7692 39.9716H36.5865C38.9904 32.9616 43.416 26.8947 49.2588 22.5995C55.1016 18.3044 62.0765 15.9906 69.2308 15.9743C70.1106 15.9743 70.9904 16.0193 71.8654 16.0893ZM50 7.97184C53.0863 7.97474 56.1584 8.40704 59.1346 9.25723C51.8867 11.1277 45.2408 14.9527 39.8667 20.3467C34.4926 25.7408 30.5803 32.5133 28.524 39.9816H15.6058C16.5598 31.1832 20.5929 23.0578 26.9361 17.1544C33.2793 11.2509 41.489 7.98236 50 7.97184ZM67.625 83.9951C66.9541 84.3158 66.3861 84.8306 65.9888 85.478C65.5915 86.1254 65.3818 86.8781 65.3846 87.6462V91.9976H34.6154V87.6462C34.6182 86.8781 34.4085 86.1254 34.0112 85.478C33.6139 84.8306 33.0459 84.3158 32.375 83.9951C25.6111 80.7571 19.785 75.7252 15.4813 69.4044C11.1776 63.0836 8.54776 55.6964 7.85577 47.9841H92.1298C91.4392 55.6948 88.8115 63.081 84.5105 69.4016C80.2094 75.7223 74.3862 80.7551 67.625 83.9951Z" fill="white"/>
</svg>
