<svg width="202" height="48" viewBox="0 0 202 48" fill="none" xmlns="http://www.w3.org/2000/svg">
<path d="M202 29.6367H200.334V33H196.99V29.6367H188.637L190.501 16.1953H193.844L192.388 26.2852H196.99V17.8828H200.334V26.2852H202V29.6367Z" fill="white"/>
<path d="M187.04 21.2344C187.04 21.9297 186.908 22.5859 186.644 23.2031C186.38 23.8125 186.019 24.3477 185.561 24.8086C185.11 25.2617 184.582 25.6211 183.976 25.8867C183.371 26.1523 182.722 26.2852 182.031 26.2852H180.353C180.12 26.2852 179.902 26.3281 179.701 26.4141C179.499 26.5 179.32 26.6211 179.165 26.7773C179.017 26.9258 178.901 27.1016 178.815 27.3047C178.73 27.5078 178.687 27.7266 178.687 27.9609V29.6367H186.586V33H175.343V27.9609C175.343 27.2656 175.475 26.6133 175.739 26.0039C176.003 25.3867 176.361 24.8516 176.811 24.3984C177.269 23.9375 177.801 23.5781 178.407 23.3203C179.013 23.0547 179.662 22.9219 180.353 22.9219H182.031C182.264 22.9219 182.481 22.8789 182.683 22.793C182.885 22.707 183.06 22.5898 183.207 22.4414C183.363 22.2852 183.483 22.1055 183.569 21.9023C183.654 21.6914 183.697 21.4688 183.697 21.2344C183.697 21 183.654 20.7812 183.569 20.5781C183.483 20.375 183.363 20.1992 183.207 20.0508C183.06 19.8945 182.885 19.7734 182.683 19.6875C182.481 19.6016 182.264 19.5586 182.031 19.5586H176.066V16.1953H182.031C182.722 16.1953 183.371 16.3281 183.976 16.5938C184.582 16.8594 185.11 17.2227 185.561 17.6836C186.019 18.1367 186.38 18.668 186.644 19.2773C186.908 19.8867 187.04 20.5391 187.04 21.2344Z" fill="white"/>
<path d="M167.957 29.9297C168.081 29.9688 168.205 29.9961 168.329 30.0117C168.454 30.0195 168.578 30.0234 168.702 30.0234C169.013 30.0234 169.312 29.9805 169.599 29.8945C169.887 29.8086 170.155 29.6875 170.403 29.5312C170.66 29.3672 170.885 29.1719 171.079 28.9453C171.281 28.7109 171.444 28.4531 171.568 28.1719L173.898 30.5273C173.603 30.9492 173.262 31.3281 172.873 31.6641C172.493 32 172.077 32.2852 171.627 32.5195C171.184 32.7539 170.714 32.9297 170.217 33.0469C169.728 33.1719 169.223 33.2344 168.702 33.2344C167.825 33.2344 166.997 33.0703 166.221 32.7422C165.452 32.4141 164.776 31.957 164.193 31.3711C163.619 30.7852 163.164 30.0898 162.83 29.2852C162.496 28.4727 162.329 27.582 162.329 26.6133C162.329 25.6211 162.496 24.7148 162.83 23.8945C163.164 23.0742 163.619 22.375 164.193 21.7969C164.776 21.2188 165.452 20.7695 166.221 20.4492C166.997 20.1289 167.825 19.9688 168.702 19.9688C169.223 19.9688 169.731 20.0312 170.229 20.1562C170.726 20.2812 171.196 20.4609 171.638 20.6953C172.089 20.9297 172.508 21.2188 172.897 21.5625C173.285 21.8984 173.627 22.2773 173.922 22.6992L167.957 29.9297ZM169.588 23.332C169.44 23.2773 169.293 23.2422 169.145 23.2266C169.005 23.2109 168.858 23.2031 168.702 23.2031C168.267 23.2031 167.856 23.2852 167.467 23.4492C167.087 23.6055 166.753 23.832 166.465 24.1289C166.186 24.4258 165.964 24.7852 165.801 25.207C165.638 25.6211 165.557 26.0898 165.557 26.6133C165.557 26.7305 165.56 26.8633 165.568 27.0117C165.584 27.1602 165.603 27.3125 165.626 27.4688C165.658 27.6172 165.693 27.7617 165.731 27.9023C165.77 28.043 165.821 28.168 165.883 28.2773L169.588 23.332Z" fill="white"/>
<path d="M154.209 33L149.455 20.4492H153.079L155.805 28.2773L158.52 20.4492H162.155L157.401 33H154.209Z" fill="white"/>
<path d="M149.281 26.6133C149.281 27.5508 149.114 28.4258 148.78 29.2383C148.446 30.043 147.991 30.7422 147.416 31.3359C146.842 31.9219 146.166 32.3867 145.389 32.7305C144.62 33.0664 143.793 33.2344 142.908 33.2344C142.03 33.2344 141.203 33.0664 140.426 32.7305C139.657 32.3867 138.981 31.9219 138.399 31.3359C137.824 30.7422 137.37 30.043 137.036 29.2383C136.702 28.4258 136.535 27.5508 136.535 26.6133C136.535 25.6602 136.702 24.7773 137.036 23.9648C137.37 23.1523 137.824 22.4531 138.399 21.8672C138.981 21.2734 139.657 20.8086 140.426 20.4727C141.203 20.1367 142.03 19.9688 142.908 19.9688C143.793 19.9688 144.62 20.1289 145.389 20.4492C146.166 20.7617 146.842 21.2109 147.416 21.7969C147.991 22.375 148.446 23.0742 148.78 23.8945C149.114 24.707 149.281 25.6133 149.281 26.6133ZM146.077 26.6133C146.077 26.0977 145.991 25.6328 145.82 25.2188C145.657 24.7969 145.432 24.4375 145.145 24.1406C144.857 23.8359 144.519 23.6055 144.131 23.4492C143.75 23.2852 143.343 23.2031 142.908 23.2031C142.473 23.2031 142.061 23.2852 141.673 23.4492C141.292 23.6055 140.958 23.8359 140.671 24.1406C140.391 24.4375 140.17 24.7969 140.007 25.2188C139.843 25.6328 139.762 26.0977 139.762 26.6133C139.762 27.0977 139.843 27.5469 140.007 27.9609C140.17 28.375 140.391 28.7344 140.671 29.0391C140.958 29.3438 141.292 29.5859 141.673 29.7656C142.061 29.9375 142.473 30.0234 142.908 30.0234C143.343 30.0234 143.75 29.9414 144.131 29.7773C144.519 29.6133 144.857 29.3828 145.145 29.0859C145.432 28.7891 145.657 28.4297 145.82 28.0078C145.991 27.5859 146.077 27.1211 146.077 26.6133Z" fill="white"/>
<path d="M136.139 33H124.441V16.1953H127.785V29.6367H136.139V33Z" fill="white"/>
<path d="M121.668 33H120.899L119.664 31.2773C119.362 31.5508 119.039 31.8086 118.697 32.0508C118.363 32.2852 118.01 32.4922 117.637 32.6719C117.264 32.8438 116.88 32.9805 116.484 33.082C116.095 33.1836 115.699 33.2344 115.295 33.2344C114.418 33.2344 113.591 33.0703 112.814 32.7422C112.045 32.4062 111.369 31.9453 110.787 31.3594C110.212 30.7656 109.757 30.0664 109.423 29.2617C109.089 28.4492 108.922 27.5664 108.922 26.6133C108.922 25.668 109.089 24.7891 109.423 23.9766C109.757 23.1641 110.212 22.4609 110.787 21.8672C111.369 21.2734 112.045 20.8086 112.814 20.4727C113.591 20.1367 114.418 19.9688 115.295 19.9688C115.575 19.9688 115.862 19.9922 116.158 20.0391C116.46 20.0859 116.752 20.1641 117.031 20.2734C117.319 20.375 117.587 20.5117 117.835 20.6836C118.084 20.8555 118.294 21.0664 118.464 21.3164V15.457H121.668V33ZM118.464 26.6133C118.464 26.1758 118.379 25.7539 118.208 25.3477C118.045 24.9336 117.82 24.5703 117.532 24.2578C117.245 23.9375 116.907 23.6836 116.519 23.4961C116.138 23.3008 115.73 23.2031 115.295 23.2031C114.86 23.2031 114.449 23.2812 114.06 23.4375C113.68 23.5938 113.346 23.8203 113.058 24.1172C112.779 24.4062 112.558 24.7617 112.394 25.1836C112.231 25.6055 112.15 26.082 112.15 26.6133C112.15 27.0742 112.231 27.5117 112.394 27.9258C112.558 28.3398 112.779 28.7031 113.058 29.0156C113.346 29.3281 113.68 29.5742 114.06 29.7539C114.449 29.9336 114.86 30.0234 115.295 30.0234C115.73 30.0234 116.138 29.9297 116.519 29.7422C116.907 29.5469 117.245 29.293 117.532 28.9805C117.82 28.6602 118.045 28.2969 118.208 27.8906C118.379 27.4766 118.464 27.0508 118.464 26.6133Z" fill="white"/>
<path d="M107.175 33H103.971V15.457H107.175V33Z" fill="white"/>
<path d="M97.2718 33H94.0911V20.4492H94.8601L95.9086 21.9375C96.4213 21.4688 97.0038 21.1094 97.6562 20.8594C98.3087 20.6016 98.9844 20.4727 99.6835 20.4727H102.491V23.6602H99.6835C99.3495 23.6602 99.0349 23.7227 98.7398 23.8477C98.4446 23.9727 98.1883 24.1445 97.9708 24.3633C97.7533 24.582 97.5825 24.8398 97.4582 25.1367C97.3339 25.4336 97.2718 25.75 97.2718 26.0859V33Z" fill="white"/>
<path d="M92.3319 26.6133C92.3319 27.5508 92.1649 28.4258 91.8309 29.2383C91.4969 30.043 91.0425 30.7422 90.4678 31.3359C89.893 31.9219 89.2172 32.3867 88.4405 32.7305C87.6716 33.0664 86.8444 33.2344 85.9589 33.2344C85.0812 33.2344 84.254 33.0664 83.4773 32.7305C82.7084 32.3867 82.0326 31.9219 81.4501 31.3359C80.8753 30.7422 80.421 30.043 80.087 29.2383C79.753 28.4258 79.586 27.5508 79.586 26.6133C79.586 25.6602 79.753 24.7773 80.087 23.9648C80.421 23.1523 80.8753 22.4531 81.4501 21.8672C82.0326 21.2734 82.7084 20.8086 83.4773 20.4727C84.254 20.1367 85.0812 19.9688 85.9589 19.9688C86.8444 19.9688 87.6716 20.1289 88.4405 20.4492C89.2172 20.7617 89.893 21.2109 90.4678 21.7969C91.0425 22.375 91.4969 23.0742 91.8309 23.8945C92.1649 24.707 92.3319 25.6133 92.3319 26.6133ZM89.1279 26.6133C89.1279 26.0977 89.0425 25.6328 88.8716 25.2188C88.7085 24.7969 88.4833 24.4375 88.1959 24.1406C87.9085 23.8359 87.5706 23.6055 87.1823 23.4492C86.8017 23.2852 86.3939 23.2031 85.9589 23.2031C85.524 23.2031 85.1123 23.2852 84.724 23.4492C84.3434 23.6055 84.0094 23.8359 83.722 24.1406C83.4424 24.4375 83.221 24.7969 83.0579 25.2188C82.8948 25.6328 82.8132 26.0977 82.8132 26.6133C82.8132 27.0977 82.8948 27.5469 83.0579 27.9609C83.221 28.375 83.4424 28.7344 83.722 29.0391C84.0094 29.3438 84.3434 29.5859 84.724 29.7656C85.1123 29.9375 85.524 30.0234 85.9589 30.0234C86.3939 30.0234 86.8017 29.9414 87.1823 29.7773C87.5706 29.6133 87.9085 29.3828 88.1959 29.0859C88.4833 28.7891 88.7085 28.4297 88.8716 28.0078C89.0425 27.5859 89.1279 27.1211 89.1279 26.6133Z" fill="white"/>
<path d="M77.7801 28.1953C77.7801 28.8906 77.6481 29.5469 77.384 30.1641C77.1277 30.7734 76.7704 31.3086 76.3121 31.7695C75.8617 32.2227 75.3296 32.582 74.716 32.8477C74.1102 33.1055 73.4616 33.2344 72.7703 33.2344C72.149 33.2344 71.5509 33.125 70.9761 32.9062C70.4091 32.6875 69.8965 32.3672 69.4382 31.9453C68.98 32.3672 68.4635 32.6875 67.8887 32.9062C67.3139 33.125 66.7158 33.2344 66.0945 33.2344C65.4032 33.2344 64.7508 33.1055 64.1372 32.8477C63.5313 32.582 62.9993 32.2227 62.541 31.7695C62.0905 31.3086 61.7332 30.7734 61.4691 30.1641C61.2128 29.5469 61.0847 28.8906 61.0847 28.1953V16.1953H64.4284V28.1953C64.4284 28.4297 64.4711 28.6523 64.5566 28.8633C64.642 29.0664 64.7585 29.2461 64.9061 29.4023C65.0614 29.5508 65.2401 29.668 65.442 29.7539C65.644 29.8398 65.8615 29.8828 66.0945 29.8828C66.3275 29.8828 66.545 29.8398 66.7469 29.7539C66.9489 29.668 67.1236 29.5508 67.2712 29.4023C67.4265 29.2461 67.5469 29.0664 67.6324 28.8633C67.7178 28.6523 67.7605 28.4297 67.7605 28.1953V16.1953H71.1043V28.1953C71.1043 28.4297 71.147 28.6523 71.2324 28.8633C71.3179 29.0664 71.4344 29.2461 71.582 29.4023C71.7373 29.5508 71.9159 29.668 72.1179 29.7539C72.3198 29.8398 72.5373 29.8828 72.7703 29.8828C73.0033 29.8828 73.2208 29.8398 73.4228 29.7539C73.6247 29.668 73.7995 29.5508 73.9471 29.4023C74.1024 29.2461 74.2228 29.0664 74.3082 28.8633C74.4014 28.6523 74.448 28.4297 74.448 28.1953V16.1953H77.7801V28.1953Z" fill="white"/>
<path d="M37.1001 31.5C37.9938 31.5 38.7473 31.8 39.3604 32.4C39.9736 33 40.275 33.7 40.2646 34.5L27.7468 39L16.8347 36V22.5H19.8745L31.2075 26.535C32.0181 26.845 32.4234 27.405 32.4234 28.215C32.4234 28.685 32.2468 29.095 31.8934 29.445C31.5401 29.795 31.0932 29.98 30.5528 30H26.1879L23.4599 28.995L22.9455 30.405L26.1879 31.5H37.1001ZM30.8646 10.845C31.9662 9.615 33.3692 9 35.0735 9C36.4869 9 37.6821 9.5 38.6589 10.5C39.6358 11.5 40.1555 12.65 40.2178 13.95C40.2178 14.98 39.6982 16.21 38.6589 17.64C37.6197 19.07 36.596 20.265 35.588 21.225C34.5799 22.185 33.0054 23.61 30.8646 25.5C28.7029 23.61 27.1129 22.185 26.0944 21.225C25.0759 20.265 24.0523 19.07 23.0234 17.64C21.9945 16.21 21.4905 14.98 21.5113 13.95C21.5113 12.59 22.0153 11.44 23.0234 10.5C24.0315 9.56 25.2474 9.06 26.6712 9C28.334 9 29.7318 9.615 30.8646 10.845ZM7.45645 25.5C7.45645 23.8431 8.7918 22.5 10.439 22.5H13.7169V39H13.4216C10.1272 39 7.45645 36.3137 7.45645 33V25.5Z" fill="white"/>
<path fill-rule="evenodd" clip-rule="evenodd" d="M23.8607 45C35.3913 45 44.7387 35.598 44.7387 24C44.7387 12.402 35.3913 3 23.8607 3C12.33 3 2.98258 12.402 2.98258 24C2.98258 35.598 12.33 45 23.8607 45ZM23.8607 48C37.0385 48 47.7213 37.2548 47.7213 24C47.7213 10.7452 37.0385 0 23.8607 0C10.6828 0 0 10.7452 0 24C0 37.2548 10.6828 48 23.8607 48Z" fill="white"/>
</svg>
