<svg width="106" height="106" viewBox="0 0 106 106" fill="none" xmlns="http://www.w3.org/2000/svg">
<path d="M43.5447 57.5838C48.6652 59.6649 54.596 59.6649 59.7164 57.5838M88.1515 80.2676C90.4008 78.0378 92.6048 75.8027 95.3013 73.6243C103.118 66.7514 105.273 61.1243 100.422 52.5838C93.953 40.9162 92.3359 40.9162 91.2566 25.9162C91.2566 17.3757 82.6293 10.0838 71.3091 9.25135C71.3091 9.25135 64.299 3 49.7445 3C32.4969 3 16.8596 10.2919 12.8149 21.7514C8.7737 33.2108 13.6252 38 9.3116 46.7514C4.18763 56.5405 -1.73968 61.3324 9.04265 73.8324C12.2421 77.2243 13.482 78.2081 15.5393 80.1973M3.64974 103V96.5405C3.64974 86.1243 13.8942 77.7919 27.373 77.7919C43.5447 88.2081 59.7176 88.2081 75.8917 77.7919C89.3705 77.7919 100.691 86.1243 100.691 96.5405V103H3.64974ZM68.3437 42.5838C68.3437 44.8757 65.9162 46.7514 62.9543 46.7514C59.9924 46.7514 57.5614 44.8757 57.5614 42.5838C57.5614 40.2919 59.9889 38.4162 62.9543 38.4162C65.9197 38.4162 68.3437 40.2919 68.3437 42.5838ZM46.7825 42.5838C46.7825 44.8757 44.355 46.7514 41.3896 46.7514C38.4242 46.7514 35.9967 44.8757 35.9967 42.5838C35.9967 40.2919 38.4242 38.4162 41.3896 38.4162C44.355 38.4162 46.7825 40.2919 46.7825 42.5838ZM22.5179 44.6676C22.5179 61.3324 35.4588 71.5405 51.6306 71.5405C67.8023 71.5405 81.8225 61.3324 81.8225 44.6676C81.8225 36.3324 79.126 32.1676 79.126 32.1676L68.3437 23.8324C68.3437 23.8324 36.0002 28 25.2144 32.1676C25.2144 32.1676 22.5179 36.3324 22.5179 44.6676Z" stroke="white" stroke-width="6" stroke-linecap="round" stroke-linejoin="round"/>
</svg>
