<svg width="100" height="100" viewBox="0 0 100 100" fill="none" xmlns="http://www.w3.org/2000/svg">
<path d="M50.0001 3.33323L51.4934 0.353222C51.0299 0.120945 50.5185 0 50.0001 0C49.4816 0 48.9703 0.120945 48.5067 0.353222L50.0001 3.33323ZM10 23.3332L8.50668 20.3532C7.9537 20.6303 7.48872 21.0558 7.16376 21.5821C6.83881 22.1084 6.6667 22.7147 6.66667 23.3332H10ZM90.0001 23.3332H93.3334C93.3334 22.7147 93.1613 22.1084 92.8363 21.5821C92.5114 21.0558 92.0464 20.6303 91.4934 20.3532L90.0001 23.3332ZM36.6667 70V66.6666H33.3334V70H36.6667ZM63.3334 70H66.6667V66.6666H63.3334V70ZM0 100H100V93.3333H0V100ZM48.5067 0.353222L8.50668 20.3532L11.4933 26.3133L51.4934 6.31323L48.5067 0.353222ZM91.4934 20.3532L51.4934 0.353222L48.5067 6.31323L88.5068 26.3133L91.4934 20.3532ZM46.6667 19.9999V36.6666H53.3334V19.9999H46.6667ZM46.6667 36.6666V53.3333H53.3334V36.6666H46.6667ZM33.3334 39.9999H50.0001V33.3333H33.3334V39.9999ZM50.0001 39.9999H66.6667V33.3333H50.0001V39.9999ZM6.66667 23.3332V96.6667H13.3333V23.3332H6.66667ZM86.6668 23.3332V96.6667H93.3334V23.3332H86.6668ZM40 96.6667V70H33.3334V96.6667H40ZM36.6667 73.3333H63.3334V66.6666H36.6667V73.3333ZM60.0001 70V96.6667H66.6667V70H60.0001Z" fill="white"/>
</svg>
