<svg width="32" height="32" viewBox="0 0 32 32" fill="none" xmlns="http://www.w3.org/2000/svg">
<path d="M24.8778 21C25.4771 21 25.9824 21.2 26.3935 21.6C26.8047 22 27.0068 22.4667 26.9998 23L18.6059 26L11.2887 24V15H13.327L20.9265 17.69C21.4701 17.8967 21.7419 18.27 21.7419 18.81C21.7419 19.1233 21.6234 19.3967 21.3865 19.63C21.1495 19.8633 20.8499 19.9867 20.4875 20H17.5606L15.7313 19.33L15.3863 20.27L17.5606 21H24.8778ZM20.6965 7.23C21.4352 6.41 22.376 6 23.5189 6C24.4667 6 25.2681 6.33333 25.9231 7C26.5782 7.66667 26.9267 8.43333 26.9685 9.3C26.9685 9.98667 26.62 10.8067 25.9231 11.76C25.2263 12.7133 24.5398 13.51 23.8639 14.15C23.1879 14.79 22.1321 15.74 20.6965 17C19.247 15.74 18.1808 14.79 17.4979 14.15C16.8149 13.51 16.1285 12.7133 15.4386 11.76C14.7487 10.8067 14.4107 9.98667 14.4246 9.3C14.4246 8.39333 14.7626 7.62667 15.4386 7C16.1145 6.37333 16.9299 6.04 17.8846 6C18.9996 6 19.9369 6.41 20.6965 7.23ZM5 17C5 15.8954 5.89543 15 7 15H9.19801V26H9C6.79086 26 5 24.2091 5 22V17Z" fill="white"/>
<path fill-rule="evenodd" clip-rule="evenodd" d="M16 30C23.732 30 30 23.732 30 16C30 8.26801 23.732 2 16 2C8.26801 2 2 8.26801 2 16C2 23.732 8.26801 30 16 30ZM16 32C24.8366 32 32 24.8366 32 16C32 7.16344 24.8366 0 16 0C7.16344 0 0 7.16344 0 16C0 24.8366 7.16344 32 16 32Z" fill="white"/>
</svg>
