<svg width="100" height="105" viewBox="0 0 100 105" fill="none" xmlns="http://www.w3.org/2000/svg">
<path d="M50 32.0345L76.6667 45.8276V101H23.3333V45.8276L50 32.0345ZM50 32.0345V1M0 101H100M10 101V59.6207H23.3333M90 101V59.6207H76.6667M43.3333 101V80.3103H56.6667V101M50 4.44828H70V18.2414H50M50 66.5172C48.2319 66.5172 46.5362 65.7906 45.286 64.4973C44.0357 63.2039 43.3333 61.4498 43.3333 59.6207C43.3333 57.7916 44.0357 56.0374 45.286 54.7441C46.5362 53.4507 48.2319 52.7241 50 52.7241C51.7681 52.7241 53.4638 53.4507 54.714 54.7441C55.9643 56.0374 56.6667 57.7916 56.6667 59.6207C56.6667 61.4498 55.9643 63.2039 54.714 64.4973C53.4638 65.7906 51.7681 66.5172 50 66.5172Z" stroke="white" stroke-width="8" stroke-linejoin="round"/>
</svg>
