<svg width="100" height="100" viewBox="0 0 100 100" fill="none" xmlns="http://www.w3.org/2000/svg">
<path d="M97.3694 16.1975L51.2159 0.205197C50.4264 -0.0683992 49.5728 -0.0683992 48.7832 0.205197L2.62978 16.1975C1.86395 16.4629 1.19786 16.972 0.725876 17.6528C0.25389 18.3336 -5.98181e-05 19.1515 1.05689e-08 19.9907V59.9714C1.05689e-08 61.0317 0.405215 62.0487 1.1265 62.7984C1.84779 63.5482 2.82607 63.9694 3.84612 63.9694C4.86618 63.9694 5.84445 63.5482 6.56574 62.7984C7.28703 62.0487 7.69224 61.0317 7.69224 59.9714V25.538L23.8411 31.1303C19.5506 38.3358 18.1862 47.0168 20.0476 55.2672C21.909 63.5175 26.844 70.6628 33.7689 75.1341C25.1152 78.6624 17.6345 85.0443 12.1634 93.7701C11.8788 94.2097 11.6812 94.7037 11.5819 95.2234C11.4827 95.7431 11.4838 96.2781 11.5852 96.7974C11.6866 97.3166 11.8863 97.8098 12.1727 98.2481C12.459 98.6864 12.8263 99.0612 13.2533 99.3507C13.6802 99.6401 14.1582 99.8385 14.6595 99.9342C15.1609 100.03 15.6755 100.021 16.1735 99.9083C16.6715 99.7954 17.143 99.5808 17.5605 99.2769C17.978 98.973 18.3333 98.5859 18.6056 98.138C25.8507 86.5835 37.2929 79.9617 49.9996 79.9617C62.7062 79.9617 74.1484 86.5835 81.3935 98.138C81.9576 99.0095 82.8291 99.6153 83.8194 99.8242C84.8097 100.033 85.8394 99.8287 86.6858 99.2548C87.5322 98.681 88.1273 97.7839 88.3425 96.7575C88.5577 95.7312 88.3757 94.658 87.8358 93.7701C82.3647 85.0443 74.8551 78.6624 66.2302 75.1341C73.1486 70.663 78.0788 63.5223 79.9399 55.278C81.801 47.0337 80.4409 38.3587 76.158 31.1553L97.3694 23.8088C98.1354 23.5436 98.8016 23.0345 99.2738 22.3537C99.7459 21.6729 100 20.8549 100 20.0156C100 19.1764 99.7459 18.3584 99.2738 17.6776C98.8016 16.9968 98.1354 16.4877 97.3694 16.2225V16.1975ZM73.0763 47.9772C73.0773 51.7696 72.2133 55.5083 70.5552 58.8864C68.8971 62.2645 66.4921 65.1859 63.5376 67.4107C60.583 69.6356 57.1631 71.1005 53.5585 71.6854C49.9538 72.2703 46.2671 71.9584 42.8008 70.7754C39.3346 69.5923 36.1875 67.5718 33.6179 64.8796C31.0483 62.1875 29.1294 58.9003 28.0186 55.2879C26.9077 51.6756 26.6366 47.8409 27.2276 44.0985C27.8185 40.3561 29.2546 36.8127 31.418 33.759L48.7832 39.7561C49.5728 40.0297 50.4264 40.0297 51.2159 39.7561L68.5811 33.759C71.5029 37.8772 73.0783 42.8602 73.0763 47.9772ZM49.9996 31.77L16.0095 19.9907L49.9996 8.21134L83.9897 19.9907L49.9996 31.77Z" fill="white"/>
</svg>
